Coordinates
version=1
nRows=29
nColumns=24
inDegrees=yes

Units are S.I. units (second, meters, Newtons, ...)
Angles are in degrees.

endheader
time	pelvis_tilt	pelvis_list	pelvis_rotation	pelvis_tx	pelvis_ty	pelvis_tz	hip_flexion_r	hip_adduction_r	hip_rotation_r	knee_angle_r	ankle_angle_r	subtalar_angle_r	mtp_angle_r	hip_flexion_l	hip_adduction_l	hip_rotation_l	knee_angle_l	ankle_angle_l	subtalar_angle_l	mtp_angle_l	lumbar_extension	lumbar_bending	lumbar_rotation
      3.71500000	     -4.14715512	      2.12516204	      2.19964671	     -0.31257675	     -0.03386645	     -0.14219076	     35.27829976	     -0.88318834	     -2.81790522	    -18.41199059	      2.60478296	     13.09907566	     16.38479052	     -9.44858690	      6.66544721	     -5.60962175	    -24.40427739	     14.64515108	     19.07924278	    -10.70579080	      2.52618409	     -4.48998321	     -9.23337109
      3.72000000	     -4.16782159	      1.85255263	      2.19549496	     -0.30462970	     -0.03424897	     -0.14169339	     35.04029505	     -0.46321048	     -2.55949415	    -18.78895028	      1.56826359	     12.49478271	     17.56873370	     -9.52448509	      6.19001445	     -5.76939581	    -24.95751810	     12.61101531	     18.92200453	     -5.69872151	      2.71526388	     -4.14370487	     -9.22367221
      3.72500000	     -4.25802529	      1.56234103	      2.22318124	     -0.29672704	     -0.03466057	     -0.14115045	     34.94904067	     -0.04182472	     -2.42420176	    -19.40753220	      0.93480551	     12.24959366	     17.15379681	     -9.39725269	      5.65577736	     -5.98366502	    -25.82927223	     11.03911363	     19.06046316	     -2.60924913	      2.96964183	     -3.78506732	     -9.16555339
      3.73000000	     -4.43228253	      1.23380205	      2.22307513	     -0.28884316	     -0.03513453	     -0.14052553	     34.95246633	      0.45072365	     -2.11126355	    -19.96866340	      0.06807498	     11.79910198	     17.05612342	     -9.04698756	      5.04509559	     -6.36458623	    -27.04594333	      9.93717497	     19.50066541	     -1.57058899	      3.31214085	     -3.39753072	     -9.13773085
      3.73500000	     -4.46964305	      0.83156928	      2.18031640	     -0.28081274	     -0.03526354	     -0.14003718	     34.77083550	      1.01988334	     -1.80173241	    -20.45945314	     -0.90229613	     11.43874889	     16.98292139	     -8.96737177	      4.41159370	     -6.50469972	    -27.74728380	      7.55799059	     19.29824810	      3.36555917	      3.53187293	     -2.88258493	     -9.04317927
      3.74000000	     -4.58837619	      0.44412631	      2.13156060	     -0.27289459	     -0.03547321	     -0.13943312	     34.73429895	      1.60275546	     -1.40322955	    -21.06832308	     -1.73906322	     11.07092522	     16.33498300	     -8.65255364	      3.74688376	     -6.78662661	    -28.79035185	      5.56357676	     19.38825164	      6.43365066	      3.81514674	     -2.40610268	     -8.95136035
      3.74500000	     -4.80383777	      0.07624289	      2.07856672	     -0.26509792	     -0.03578758	     -0.13874375	     34.83865146	      2.19093598	     -0.89194401	    -21.70944264	     -2.65666397	     10.52249651	     15.81816614	     -8.09183133	      3.06998264	     -7.12322265	    -30.17087042	      3.95143696	     19.74662347	      7.52939433	      4.17823231	     -1.96976731	     -8.88654902
      3.75000000	     -4.81281675	     -0.33708779	      1.93382034	     -0.25702026	     -0.03574291	     -0.13813548	     34.67767183	      2.85353682	     -0.40493909	    -22.36241793	     -3.25692147	     10.35751755	     14.96235642	     -7.90369349	      2.38809768	     -7.39836804	    -30.99394755	      1.07601541	     19.46832184	     12.19907130	      4.37311352	     -1.42899794	     -8.68032490
      3.75500000	     -4.95580304	     -0.71613384	      1.84103570	     -0.24915991	     -0.03587169	     -0.13750893	     34.69621934	      3.46325361	      0.09947243	    -23.04751121	     -3.91437567	     10.02826045	     14.42317887	     -7.39408906	      1.71171695	     -7.65966757	    -32.21080232	     -1.32816731	     19.41000514	     14.62235118	      4.65717587	     -0.95518769	     -8.55812590
      3.76000000	     -5.04199928	     -1.09250677	      1.78820076	     -0.24134427	     -0.03589966	     -0.13696977	     34.62830991	      4.04233727	      0.54102431	    -23.71609417	     -4.40175854	      9.72143415	     13.92583224	     -6.88551852	      1.04385825	     -7.80926652	    -33.45902842	     -3.92542479	     19.18266850	     16.85364188	      4.87328527	     -0.48859699	     -8.52260119
      3.76500000	     -5.17559829	     -1.47130922	      1.66098450	     -0.23347056	     -0.03600524	     -0.13631070	     34.59686359	      4.66716947	      1.02356909	    -24.36352378	     -4.81941835	      9.38085845	     13.63436147	     -6.27751557	      0.35579898	     -8.07668016	    -34.80782055	     -6.42710573	     19.03072558	     18.14854014	      5.15569636	     -0.01608653	     -8.38565403
      3.77000000	     -5.24979619	     -1.78186379	      1.58294581	     -0.22579316	     -0.03601373	     -0.13572691	     34.48525294	      5.19697543	      1.47621227	    -24.98573309	     -5.12138981	      8.95476801	     13.47998990	     -5.64607254	     -0.23233149	     -8.19515618	    -36.24792331	     -8.92179258	     18.63512412	     18.37974578	      5.32979775	      0.36818164	     -8.34432187
      3.77500000	     -5.33126067	     -2.13192440	      1.44468400	     -0.21816412	     -0.03603925	     -0.13508154	     34.35895947	      5.77776537	      1.87034830	    -25.55529470	     -5.36720307	      8.63045394	     13.49802658	     -4.96742646	     -0.87673641	     -8.41928121	    -37.67900109	    -11.51094300	     18.10692037	     18.86341271	      5.50226771	      0.80330025	     -8.23745922
      3.78000000	     -5.33685562	     -2.50431497	      1.34177899	     -0.21050915	     -0.03593004	     -0.13451288	     34.09351876	      6.33791714	      2.06843996	    -26.04466625	     -5.42880430	      8.33143886	     13.54089985	     -4.32927338	     -1.52840904	     -8.55976458	    -39.14424778	    -13.97050755	     17.42584152	     18.42102948	      5.60492207	      1.26578917	     -8.11473095
      3.78500000	     -5.35791249	     -2.89354652	      1.21759875	     -0.20296195	     -0.03587321	     -0.13381113	     33.81373970	      6.93445702	      2.28021820	    -26.47470158	     -5.40339787	      8.00790659	     13.64321097	     -3.60673106	     -2.22725551	     -8.79617713	    -40.67479794	    -16.29990715	     16.58128712	     17.79973676	      5.70794755	      1.71847663	     -8.01156964
      3.79000000	     -5.44664112	     -3.14029937	      1.04403730	     -0.19565882	     -0.03580315	     -0.13297021	     33.60880629	      7.43033956	      2.57430736	    -26.86492650	     -5.51772525	      7.43142042	     14.03527082	     -2.75412145	     -2.73294473	     -8.95348802	    -42.21644521	    -18.52066873	     15.50711817	     16.47446730	      5.84107072	      1.99876879	     -7.82956056
      3.79500000	     -5.55500080	     -3.53881899	      0.85085618	     -0.18838702	     -0.03581764	     -0.13222698	     33.35973458	      8.03486231	      2.70730067	    -27.06354521	     -5.73784824	      6.94598756	     15.20004958	     -1.77448791	     -3.42654161	     -9.22810960	    -44.06192309	    -19.80554512	     14.55731150	     13.23111862	      5.99678416	      2.46775236	     -7.64255973
      3.80000000	     -5.58669770	     -3.91845129	      0.66763885	     -0.18122464	     -0.03568340	     -0.13136015	     32.99098869	      8.64765410	      2.86863667	    -27.25098613	     -5.74114435	      6.44523091	     15.71193358	     -0.85798585	     -4.09654774	     -9.45035678	    -45.81995349	    -21.02809694	     13.35551578	     10.46027964	      6.05165941	      2.88102203	     -7.46867395
      3.80500000	     -5.64081531	     -4.29279219	      0.49247868	     -0.17422856	     -0.03552174	     -0.13047527	     32.61751482	      9.25216499	      3.04847089	    -27.37341721	     -5.75355274	      5.95440139	     16.21439628	      0.14668935	     -4.76247849	     -9.66515386	    -47.61901487	    -21.90239600	     12.00845486	      7.58471283	      6.10826727	      3.27778720	     -7.31576731
      3.81000000	     -5.69347850	     -4.69872665	      0.31085036	     -0.16719303	     -0.03534782	     -0.12958519	     32.18814406	      9.88806867	      3.16057264	    -27.40347220	     -5.69936230	      5.37416821	     16.70143725	      1.16891757	     -5.44894717	     -9.84883092	    -49.44100889	    -22.24156827	     10.62217299	      4.40906951	      6.18508876	      3.71167013	     -7.06640403
      3.81500000	     -5.74684462	     -5.09741262	      0.13339585	     -0.16030434	     -0.03508207	     -0.12869013	     31.73476505	     10.51327857	      3.28327469	    -27.38330383	     -5.67119003	      4.83788090	     17.04796102	      2.23836208	     -6.12101738	     -9.99858338	    -51.25401866	    -22.26504016	      9.19307237	      1.35776387	      6.23797188	      4.12768216	     -6.83575759
      3.82000000	     -5.80719617	     -5.47086269	     -0.05603740	     -0.15350579	     -0.03480192	     -0.12776962	     31.26408778	     11.12944338	      3.46971483	    -27.32965433	     -5.60670118	      4.25986903	     17.26345373	      3.33836119	     -6.75798620	    -10.14799022	    -53.03783583	    -21.93272443	      7.70182764	     -1.43521772	      6.29221964	      4.50803956	     -6.59746071
      3.82500000	     -5.85931175	     -5.82898652	     -0.22591501	     -0.14678835	     -0.03444502	     -0.12690168	     30.75879343	     11.71562824	      3.65578329	    -27.23535214	     -5.51783634	      3.71595123	     17.37668110	      4.45741607	     -7.35985329	    -10.25468834	    -54.77563296	    -21.28612165	      6.19905811	     -4.03284398	      6.32669591	      4.87079735	     -6.35608803
      3.83000000	     -5.90698853	     -6.15680495	     -0.38753496	     -0.14013435	     -0.03401438	     -0.12607616	     30.22347342	     12.26367140	      3.86446925	    -27.10790384	     -5.39341761	      3.20316794	     17.39490285	      5.58988526	     -7.91167011	    -10.33771678	    -56.44072768	    -20.40637371	      4.70564939	     -6.31989456	      6.35446453	      5.20159251	     -6.10649044
      3.83500000	     -5.87514650	     -6.43806072	     -0.49006541	     -0.13354862	     -0.03337419	     -0.12534914	     29.57950508	     12.72530520	      4.01119674	    -26.94828381	     -5.21055627	      2.77679551	     17.29431890	      6.62475144	     -8.37876409	    -10.34687223	    -57.86637893	    -19.89615621	      2.99136850	     -6.76863510	      6.29210323	      5.47200393	     -5.88604824
      3.84000000	     -5.98052219	     -6.71540327	     -0.66839431	     -0.12696344	     -0.03292917	     -0.12455473	     29.06221122	     13.22490489	      4.33168522	    -26.76375041	     -5.05382644	      2.30677673	     17.27695619	      7.87080927	     -8.86698339	    -10.44448127	    -59.49539681	    -18.17818287	      1.85816363	     -9.91329539	      6.38565368	      5.75269249	     -5.60069484
      3.84500000	     -5.93131614	     -6.92406912	     -0.74419078	     -0.12043670	     -0.03212793	     -0.12396955	     28.35072180	     13.57793776	      4.50728325	    -26.53480807	     -4.81308590	      1.98662284	     17.18424963	      8.91287882	     -9.22264906	    -10.44067539	    -60.74103432	    -17.40447953	      0.26324399	    -10.10757353	      6.31003239	      5.95737431	     -5.38260875
      3.85000000	     -6.01239286	     -7.12499633	     -0.87769092	     -0.11394290	     -0.03150714	     -0.12328618	     27.77435894	     13.95989561	      4.82946343	    -26.31297762	     -4.60015064	      1.62872481	     17.00768744	     10.14624353	     -9.59711985	    -10.49146695	    -62.10789224	    -15.76063339	     -0.79191666	    -12.24399413	      6.37675972	      6.15209406	     -5.11394415
      3.85500000	     -5.92456500	     -7.28783942	     -0.94315100	     -0.10741102	     -0.03056801	     -0.12274512	     26.96304988	     14.24139319	      5.07838520	    -26.00590933	     -4.24540442	      1.52026251	     17.02954528	     11.15097324	     -9.90072044	    -10.48925656	    -63.15662224	    -14.87112622	     -2.06157198	    -12.11608899	      6.27313949	      6.30412821	     -4.87379693
